<?xml version="1.0" encoding="utf-8"?>
<!-- Generator: Adobe Illustrator 25.2.0, SVG Export Plug-In . SVG Version: 6.00 Build 0)  -->
<svg version="1.1" id="Layer_1" xmlns="http://www.w3.org/2000/svg" xmlns:xlink="http://www.w3.org/1999/xlink" x="0px" y="0px"
	 viewBox="0 0 24 24" style="enable-background:new 0 0 24 24;" xml:space="preserve">
<style type="text/css">
	.st0{fill:#E9516D;}
</style>
<path class="st0" d="M17,18c1.1,0,2,0.9,2,2s-0.9,2-2,2c-1.1,0-2-0.9-2-2C15,18.9,15.9,18,17,18 M1,2h3.3l0.9,2H20c0.6,0,1,0.4,1,1
	c0,0.2,0,0.3-0.1,0.5L17.3,12c-0.3,0.6-1,1-1.7,1H8.1l-0.9,1.6l0,0.1c0,0.1,0.1,0.2,0.2,0.2H19v2H7c-1.1,0-2-0.9-2-2
	c0-0.4,0.1-0.7,0.2-1l1.4-2.4L3,4H1V2 M7,18c1.1,0,2,0.9,2,2s-0.9,2-2,2c-1.1,0-2-0.9-2-2C5,18.9,5.9,18,7,18 M16,11l2.8-5H6.1
	l2.4,5H16z"/>
</svg>
