<?xml version="1.0" encoding="utf-8"?>
<!-- Generator: Adobe Illustrator 25.2.0, SVG Export Plug-In . SVG Version: 6.00 Build 0)  -->
<svg version="1.1" id="Layer_1" xmlns="http://www.w3.org/2000/svg" xmlns:xlink="http://www.w3.org/1999/xlink" x="0px" y="0px"
	 viewBox="0 0 20 20" style="enable-background:new 0 0 20 20;" xml:space="preserve">
<style type="text/css">
	.st0{fill:#E9516D;}
</style>
<path class="st0" d="M11,20l2-1.1l2,1.1v-7.8h-4 M15,6.7V4.4l-2,1.1l-2-1.1v2.2L9,7.8l2,1.1v2.2l2-1.1l2,1.1V8.9l2-1.1 M18,0H2
	C0.9,0,0,1,0,2.2v11.1c0,1.2,0.9,2.2,2,2.2h7v-2.2H2V2.2h16v11.1h-1v2.2h1c1.1,0,2-1,2-2.2V2.2C20,1,19.1,0,18,0 M9,5.6H3V3.3h6
	 M7,8.9H3V6.7h4 M9,12.2H3V10h6V12.2z"/>
</svg>
