<?xml version="1.0" encoding="utf-8"?>
<!-- Generator: Adobe Illustrator 25.2.0, SVG Export Plug-In . SVG Version: 6.00 Build 0)  -->
<svg version="1.1" id="Layer_1" xmlns="http://www.w3.org/2000/svg" xmlns:xlink="http://www.w3.org/1999/xlink" x="0px" y="0px"
	 viewBox="0 0 20 20" style="enable-background:new 0 0 20 20;" xml:space="preserve">
<style type="text/css">
	.st0{fill:#E9516D;}
</style>
<path class="st0" d="M8.5,15.8C8.8,15.8,9,16,9,16.3s-0.2,0.5-0.5,0.5S8,16.6,8,16.3S8.2,15.8,8.5,15.8 M11.5,15.8
	c0.3,0,0.5,0.2,0.5,0.5s-0.2,0.5-0.5,0.5S11,16.6,11,16.3S11.2,15.8,11.5,15.8 M8,8.4c0.6,0,1,0.5,1,1.1s-0.4,1.1-1,1.1
	s-1-0.5-1-1.1S7.4,8.4,8,8.4 M12,8.4c0.6,0,1,0.5,1,1.1s-0.4,1.1-1,1.1s-1-0.5-1-1.1S11.5,8.4,12,8.4 M16,15.8c0,2.3-2.7,4.2-6,4.2
	s-6-1.9-6-4.2c0-0.9,0.5-1.8,1.2-2.5C4.4,12.2,4,10.9,4,9.5l0.1-1.3c-0.5,0.2-1.2,0.2-1.7,0C1.3,7.9-0.2,6.7,0,5.8s2.2-1,3.2-0.7
	c0.6,0.2,1.2,0.6,1.6,1.1l0.6-0.9C4.8,4.3,5,1.1,8,0L7.9,0.1l0,0C7.6,0.6,6.9,2,7.7,3.6C8.4,3.3,9.2,3.2,10,3.2s1.6,0.2,2.3,0.5
	c0.8-1.6,0-3-0.2-3.5L12,0c3,1.1,3.2,4.3,2.6,5.4l0.6,0.9c0.4-0.5,1-0.9,1.6-1.1c1-0.3,2.9-0.2,3.2,0.7S18.7,8,17.7,8.2
	c-0.5,0.2-1.2,0.2-1.7,0l0,1.3c0,1.4-0.5,2.7-1.2,3.8C15.6,14,16,14.8,16,15.8 M10,13.7c-2.2,0-4,0.9-4,2.1s1.8,2.1,4,2.1
	s4-0.9,4-2.1S12.2,13.7,10,13.7 M10,11.6c1.1,0,2.2,0.2,3.1,0.6c0.6-0.7,0.9-1.6,0.9-2.7c0-2.3-1.8-4.2-4-4.2S6,7.1,6,9.5
	c0,1.1,0.4,2,0.9,2.7C7.8,11.8,8.9,11.6,10,11.6 M12.1,0.1L12.1,0.1z"/>
</svg>
