<?xml version="1.0" encoding="utf-8"?>
<!-- Generator: Adobe Illustrator 25.2.0, SVG Export Plug-In . SVG Version: 6.00 Build 0)  -->
<svg version="1.1" id="Layer_1" xmlns="http://www.w3.org/2000/svg" xmlns:xlink="http://www.w3.org/1999/xlink" x="0px" y="0px"
	 viewBox="0 0 24 24" style="enable-background:new 0 0 24 24;" xml:space="preserve">
<style type="text/css">
	.st0{fill:#E9516D;}
</style>
<path class="st0" d="M21.7,8.7c1.2-1.2,0.7-2.7,0-3.4l-3-3c-1.3-1.2-2.7-0.7-3.4,0L13.6,4H11C9.1,4,8,5,7.4,6.2L3,10.6v4l-0.7,0.7
	c-1.2,1.3-0.7,2.7,0,3.4l3,3c0.5,0.5,1.1,0.7,1.7,0.7c0.7,0,1.4-0.4,1.8-0.7l2.7-2.7H15c1.7,0,2.6-1.1,2.9-2.1c1.1-0.3,1.8-1.2,2-2
	C21.4,14.5,22,13,22,12V9h-0.6L21.7,8.7 M20,12c0,0.4-0.2,1-1,1h-1v1c0,0.4-0.2,1-1,1h-1v1c0,0.5-0.2,1-1,1h-4.4l-3.3,3.3
	c-0.3,0.3-0.5,0.1-0.6,0l-3-3c-0.3-0.3-0.1-0.5,0-0.6L5,15.4v-4l2-2V11c0,1.2,0.8,3,3,3s3-1.8,3-3h7V12 M20.3,7.3L18.6,9H11v2
	c0,0.4-0.2,1-1,1s-1-0.6-1-1V8c0-0.5,0.2-2,2-2h3.4l2.3-2.3c0.3-0.3,0.5-0.1,0.6,0l3,3C20.6,7,20.4,7.2,20.3,7.3z"/>
</svg>
