<?xml version="1.0" encoding="utf-8"?>
<!-- Generator: Adobe Illustrator 25.2.0, SVG Export Plug-In . SVG Version: 6.00 Build 0)  -->
<svg version="1.1" id="Layer_1" xmlns="http://www.w3.org/2000/svg" xmlns:xlink="http://www.w3.org/1999/xlink" x="0px" y="0px"
	 viewBox="0 0 30 20" style="enable-background:new 0 0 30 20;" xml:space="preserve">
<style type="text/css">
	.st0{fill:#E9516D;}
</style>
<g id="Money">
	<path class="st0" d="M0,0h30v20H0V0 M15,5c2.8,0,5,2.2,5,5s-2.2,5-5,5s-5-2.2-5-5S12.2,5,15,5 M6.7,3.3c0,1.8-1.5,3.3-3.3,3.3v6.7
		c1.8,0,3.3,1.5,3.3,3.3h16.7c0-1.8,1.5-3.3,3.3-3.3V6.7c-1.8,0-3.3-1.5-3.3-3.3L6.7,3.3L6.7,3.3z"/>
</g>
</svg>
