<?xml version="1.0" encoding="utf-8"?>
<!-- Generator: Adobe Illustrator 25.2.0, SVG Export Plug-In . SVG Version: 6.00 Build 0)  -->
<svg version="1.1" id="Layer_1" xmlns="http://www.w3.org/2000/svg" xmlns:xlink="http://www.w3.org/1999/xlink" x="0px" y="0px"
	 viewBox="0 0 24 24" style="enable-background:new 0 0 24 24;" xml:space="preserve">
<style type="text/css">
	.st0{fill:#E9516D;}
</style>
<path class="st0" d="M18,15h-2v2h2 M18,11h-2v2h2 M20,19h-8v-2h2v-2h-2v-2h2v-2h-2V9h8 M10,7H8V5h2 M10,11H8V9h2 M10,15H8v-2h2
	 M10,19H8v-2h2 M6,7H4V5h2 M6,11H4V9h2 M6,15H4v-2h2 M6,19H4v-2h2 M12,7V3H2v18h20V7H12z"/>
</svg>
