<?xml version="1.0" encoding="utf-8"?>
<!-- Generator: Adobe Illustrator 25.2.0, SVG Export Plug-In . SVG Version: 6.00 Build 0)  -->
<svg version="1.1" id="Icon" xmlns="http://www.w3.org/2000/svg" xmlns:xlink="http://www.w3.org/1999/xlink" x="0px" y="0px"
	 viewBox="0 0 229 182.2" style="enable-background:new 0 0 229 182.2;" xml:space="preserve">
<style type="text/css">
	.st0{display:none;fill:url(#SVGID_1_);}
	.st1{fill:#003538;}
	.st2{fill:#EDEDED;}
	.st3{fill:url(#SVGID_2_);}
	.st4{fill:url(#SVGID_3_);}
	.st5{fill:url(#SVGID_4_);}
	.st6{fill:url(#SVGID_5_);}
	.st7{fill:url(#SVGID_6_);}
	.st8{fill:url(#SVGID_7_);}
	.st9{fill:url(#SVGID_8_);}
</style>
<g id="Icon_1_">
	
		<radialGradient id="SVGID_1_" cx="83.2" cy="76.6" r="100.5" gradientTransform="matrix(1 0 0 -1 0 184)" gradientUnits="userSpaceOnUse">
		<stop  offset="0.7537" style="stop-color:#ABABAB"/>
		<stop  offset="0.7721" style="stop-color:#B6B6B6"/>
		<stop  offset="0.834" style="stop-color:#D6D6D6"/>
		<stop  offset="0.894" style="stop-color:#EDEDED"/>
		<stop  offset="0.9505" style="stop-color:#FAFAFA"/>
		<stop  offset="1" style="stop-color:#FFFFFF"/>
	</radialGradient>
	<circle class="st0" cx="83.2" cy="107.4" r="100.5"/>
	<g>
		<ellipse class="st1" cx="91.1" cy="91.1" rx="91.1" ry="91.1"/>
		<circle class="st2" cx="91.1" cy="91.1" r="56.9"/>
		
			<radialGradient id="SVGID_2_" cx="91.1" cy="92.9" r="51.2" gradientTransform="matrix(1 0 0 -1 0 184)" gradientUnits="userSpaceOnUse">
			<stop  offset="0.3856" style="stop-color:#046A38"/>
			<stop  offset="0.5712" style="stop-color:#046435"/>
			<stop  offset="0.8249" style="stop-color:#03522C"/>
			<stop  offset="1" style="stop-color:#034223"/>
		</radialGradient>
		<circle class="st3" cx="91.1" cy="91.1" r="51.2"/>
		<g>
			
				<linearGradient id="SVGID_3_" gradientUnits="userSpaceOnUse" x1="50.0107" y1="151.1617" x2="282.3142" y2="46.4269" gradientTransform="matrix(1 0 0 -1 0 184)">
				<stop  offset="0" style="stop-color:#A4D672"/>
				<stop  offset="0.4387" style="stop-color:#56B03D"/>
				<stop  offset="0.8199" style="stop-color:#189213"/>
				<stop  offset="1" style="stop-color:#008603"/>
			</linearGradient>
			<path class="st4" d="M229,18.1L229,18.1c-0.1,0.2-2.4,4-8,10.4c-9.3,10.7-28,28.7-62,49.9c-55,34.3-71.9,46.2-85.2,60.6
				c0-0.1,0.4-1,1.2-2.7c4-8.7,19-37.1,53.9-63.5C170.8,41.4,193.9,45.7,229,18.1z"/>
			
				<linearGradient id="SVGID_4_" gradientUnits="userSpaceOnUse" x1="187.6166" y1="186.332" x2="130.692" y2="58.2523" gradientTransform="matrix(1 0 0 -1 0 184)">
				<stop  offset="0" style="stop-color:#A4D672"/>
				<stop  offset="0.4387" style="stop-color:#56B03D"/>
				<stop  offset="0.8199" style="stop-color:#189213"/>
				<stop  offset="1" style="stop-color:#008603"/>
			</linearGradient>
			<path class="st5" d="M229,18.1c-0.3,0.9-15.8,49.7-64.1,80.9c-43.5,28.2-69.6,26.2-85.7,36c-1.9,1.2-3.7,2.5-5.4,4.1
				c13.2-14.5,30.1-26.3,85.2-60.6c34-21.2,52.7-39.2,62-49.9C226.7,22.2,228.9,18.4,229,18.1z"/>
			
				<linearGradient id="SVGID_5_" gradientUnits="userSpaceOnUse" x1="142.8131" y1="91.6315" x2="82.225" y2="-18.0721" gradientTransform="matrix(1 0 0 -1 0 184)">
				<stop  offset="0" style="stop-color:#A4D672"/>
				<stop  offset="0.4387" style="stop-color:#56B03D"/>
				<stop  offset="0.8199" style="stop-color:#189213"/>
				<stop  offset="1" style="stop-color:#008603"/>
			</linearGradient>
			<path class="st6" d="M222.3,26.8c0,0-0.1,0.2-0.2,0.4c-0.2,0.3-0.4,0.7-0.8,1.2l-0.1,0.1c-0.8,1-2,2.5-3.6,4.3
				c-1.7,1.9-4,4.2-6.6,6.7c-2.7,2.5-5.8,5.3-9.3,8.2c-6.9,5.9-15.3,12.3-24.3,18.7c-4.5,3.2-9.1,6.5-13.9,9.7
				c-4.7,3.2-9.5,6.4-14.3,9.6c-9.6,6.3-19.1,12.7-28.1,18.6s-17.3,11.5-24.4,16.6c-3.5,2.5-6.7,4.9-9.4,7.1c-2.7,2.2-5,4.2-6.8,5.9
				c-0.4,0.4-0.8,0.7-1.1,1.1c-1.9,1.2-3.7,2.5-5.4,4.1c0-0.1,0.4-1,1.2-2.7c1-1,2.2-2.2,3.8-3.7c2.1-1.9,4.6-4.1,7.6-6.4
				c3-2.3,6.3-4.8,10-7.3c7.3-5.1,15.7-10.6,24.6-16.5c9-5.8,18.5-12.1,28.1-18.3c4.8-3.1,9.6-6.3,14.2-9.4
				c4.7-3.1,9.3-6.3,13.7-9.4c8.9-6.3,17.2-12.5,24-18.2c3.4-2.8,6.5-5.5,9.2-8c2.6-2.5,4.8-4.7,6.5-6.5s2.9-3.3,3.6-4.3
				c0.4-0.5,0.6-0.9,0.8-1.1s0.2-0.3,0.2-0.4c0.1-0.2,0.4-0.4,0.6-0.5C222.3,26.5,222.4,26.6,222.3,26.8z"/>
		</g>
		<g>
			
				<linearGradient id="SVGID_6_" gradientUnits="userSpaceOnUse" x1="-56.1352" y1="131.0229" x2="171.6473" y2="28.3264" gradientTransform="matrix(1 0 0 -1 0 184)">
				<stop  offset="0" style="stop-color:#A4D672"/>
				<stop  offset="0.4387" style="stop-color:#56B03D"/>
				<stop  offset="0.8199" style="stop-color:#189213"/>
				<stop  offset="1" style="stop-color:#008603"/>
			</linearGradient>
			<path class="st7" d="M74.1,139.2c0,0-0.6-0.1-1.8-0.3c-5.7-1.1-24-6.1-37-25.2C19.7,90.8,27.2,74,13.4,54.9c0,0,2.4,0.8,6.3,3.5
				c6.2,4.4,16.1,13.9,25.4,33.4C60.2,123.3,65.8,132.7,74.1,139.2z"/>
			
				<linearGradient id="SVGID_7_" gradientUnits="userSpaceOnUse" x1="56.2655" y1="115.1096" x2="37.777" y2="73.5108" gradientTransform="matrix(1 0 0 -1 0 184)">
				<stop  offset="0" style="stop-color:#A4D672"/>
				<stop  offset="0.4387" style="stop-color:#56B03D"/>
				<stop  offset="0.8199" style="stop-color:#189213"/>
				<stop  offset="1" style="stop-color:#008603"/>
			</linearGradient>
			<path class="st8" d="M74.1,139.2c-8.3-6.4-13.9-15.8-29-47.4c-9.4-19.5-19.2-29-25.4-33.4c-3.8-2.8-6.3-3.5-6.3-3.5
				s33.8,1.3,48.1,29c12.7,24.8,6.3,43.1,10.6,52.4C72.5,137.3,73.2,138.3,74.1,139.2z"/>
			
				<linearGradient id="SVGID_8_" gradientUnits="userSpaceOnUse" x1="44.7185" y1="82.7697" x2="28.7112" y2="53.7861" gradientTransform="matrix(1 0 0 -1 0 184)">
				<stop  offset="0" style="stop-color:#A4D672"/>
				<stop  offset="0.4387" style="stop-color:#56B03D"/>
				<stop  offset="0.8199" style="stop-color:#189213"/>
				<stop  offset="1" style="stop-color:#008603"/>
			</linearGradient>
			<path class="st9" d="M74.1,139.2c0,0-0.6-0.1-1.8-0.3c-0.5-0.5-1.2-1.1-2-1.9c-1-1.1-2.2-2.4-3.4-4c-1.2-1.6-2.4-3.5-3.6-5.5
				c-2.4-4.1-4.9-8.8-7.6-13.9c-2.7-5.1-5.5-10.5-8.3-15.9c-1.4-2.7-2.8-5.4-4.3-8.1c-1.4-2.6-2.9-5.2-4.4-7.7c-3-5-6.1-9.5-9-13.2
				c-1.5-1.8-2.9-3.5-4.2-4.8c-1.3-1.4-2.6-2.5-3.6-3.3s-1.9-1.4-2.5-1.7c-0.3-0.2-0.5-0.3-0.7-0.3c-0.1-0.1-0.2-0.1-0.2-0.1
				c-0.1,0-0.2-0.2-0.3-0.3s0.1-0.2,0.2-0.2c0,0,0.1,0,0.3,0.1c0.2,0.1,0.4,0.2,0.7,0.3c0,0,0.1,0,0.1,0.1c0.6,0.3,1.5,0.9,2.5,1.7
				c1.1,0.8,2.4,1.9,3.7,3.3c1.4,1.4,2.9,3,4.4,4.9c3,3.7,6.2,8.2,9.4,13.2c1.5,2.5,3.1,5.1,4.6,7.8c1.5,2.7,2.9,5.4,4.4,8.1
				c2.9,5.4,5.8,10.8,8.6,15.9c2.7,5.1,5.3,9.8,7.7,13.7c1.2,2,2.4,3.7,3.5,5.2s2.2,2.7,3.1,3.6c0.2,0.2,0.4,0.4,0.6,0.6
				C72.5,137.3,73.2,138.3,74.1,139.2z"/>
		</g>
		<g>
			<path class="st2" d="M64.6,31.4L56,18.3l2.7-1.2l4.9,8.1L61.4,16l2.7-1.1l3.2,15.4L64.6,31.4z"/>
			<path class="st2" d="M75,27.7l-3.2-15.1l6.3-1.3l0.4,2.1l-3.2,0.7l0.9,4.1l2.3-0.5l0.5,2.1l-2.3,0.5l1,4.7l3.2-0.7l0.4,2.1
				L75,27.7z"/>
			<path class="st2" d="M86.2,20.9v-5.4c0-3.7,1.5-5.5,4.5-5.5c0.6,0,1.2,0.1,1.7,0.2c0.5,0.2,0.9,0.4,1.3,0.7
				c0.3,0.3,0.6,0.7,0.8,1.1c0.2,0.4,0.4,0.9,0.5,1.4s0.2,1.1,0.2,1.7V16h-3v-1.1c0-0.3,0-0.5,0-0.7s-0.1-0.4-0.1-0.7
				C92,13.3,92,13,91.9,12.9c-0.1-0.2-0.2-0.3-0.4-0.4c-0.2-0.1-0.4-0.2-0.7-0.2c-1,0-1.4,0.8-1.4,2.3v6.7c0,1.5,0.5,2.3,1.4,2.3
				s1.4-0.8,1.4-2.4V20h-1.8v-2.2h4.9v7.9h-2.1l-0.4-1.1c-0.3,0.4-0.6,0.7-1.1,1s-1,0.4-1.5,0.4c-0.6,0-1.1-0.1-1.5-0.3
				c-0.5-0.2-0.8-0.5-1.1-0.8c-0.3-0.3-0.5-0.7-0.8-1.2c-0.2-0.5-0.3-0.9-0.4-1.4C86.3,21.9,86.3,21.4,86.2,20.9z"/>
			<path class="st2" d="M100.3,26.2l6.5-14.4l2.7,0.6v15.8l-3-0.6l0.1-3.4l-2-0.4l-1.3,3.1L100.3,26.2z M105.2,21.9l1.6,0.3l0.4-5.8
				L105.2,21.9z"/>
			<path class="st2" d="M114.3,29.8l6.4-14.1l2,0.9l-0.2,8.8l3.3-7.4l2.4,1.1l-6.4,14.1l-2-0.9l0.4-9.2l-3.5,7.8L114.3,29.8z"/>
		</g>
		<g>
			<path class="st2" d="M42.5,155l8.9-12.6l5.3,3.7l-1.2,1.8l-2.7-1.9l-2.4,3.4l1.9,1.4l-1.3,1.8l-1.9-1.4l-4,5.6L42.5,155z"/>
			<path class="st2" d="M54.1,162.3l6.4-14.1l3.1,1.4c0.7,0.3,1.3,0.7,1.8,1c0.5,0.4,0.8,0.8,1.1,1.3s0.4,1,0.4,1.6
				s-0.2,1.2-0.5,1.9c-0.1,0.3-0.3,0.5-0.4,0.8c-0.1,0.2-0.3,0.5-0.5,0.7c-0.2,0.3-0.4,0.5-0.7,0.6c-0.2,0.2-0.5,0.3-0.9,0.4
				c-0.3,0.1-0.7,0.2-1.1,0.2c-0.4,3.1-0.7,5.7-0.9,7.8l-2.9-1.3l1.3-7.2l-0.5-0.2l-2.9,6.5L54.1,162.3z M60.6,155.4l0.8,0.4
				c0.2,0.1,0.4,0.1,0.7,0c0.2-0.1,0.4-0.2,0.6-0.4c0.2-0.2,0.3-0.4,0.4-0.5c0.1-0.2,0.2-0.3,0.3-0.5s0.1-0.3,0.2-0.5
				c0.1-0.2,0.1-0.4,0.1-0.6c0-0.2,0-0.5-0.1-0.7s-0.2-0.3-0.4-0.4l-0.9-0.4L60.6,155.4z"/>
			<path class="st2" d="M68.8,168.1l3.9-14.9l3,0.8l-3.9,14.9L68.8,168.1z"/>
			<path class="st2" d="M79.6,170.4l1.6-15.4l6.4,0.7l-0.2,2.1l-3.3-0.3l-0.4,4.2l2.3,0.2l-0.2,2.2l-2.3-0.2l-0.5,4.7l3.3,0.3
				L86,171L79.6,170.4z"/>
			<path class="st2" d="M93.4,171.2l-1.3-15.4l2.2-0.2l4,7.8l-0.7-8.1l2.6-0.2l1.3,15.4l-2.2,0.2l-4.1-8.3l0.7,8.5L93.4,171.2z"/>
			<path class="st2" d="M109.9,168.9l-4.4-14.8l3.1-0.9c1-0.3,1.8-0.4,2.5-0.5c0.7,0,1.3,0.1,1.8,0.4c0.5,0.3,0.9,0.7,1.2,1.2
				c0.3,0.5,0.6,1.2,0.9,2.1l1.4,4.9c0.2,0.5,0.3,1,0.4,1.4s0.1,0.8,0.2,1.2c0,0.4,0,0.8-0.1,1.1s-0.2,0.6-0.4,0.9
				c-0.2,0.3-0.4,0.6-0.7,0.8c-0.3,0.2-0.7,0.5-1.1,0.7s-1,0.4-1.6,0.6L109.9,168.9z M112.4,165.9c0.3-0.1,0.5-0.2,0.7-0.2
				c0.2-0.1,0.3-0.1,0.5-0.2c0.2-0.1,0.3-0.2,0.3-0.2c0.1-0.1,0.1-0.2,0.1-0.3s0-0.3,0-0.4c0-0.2-0.1-0.3-0.1-0.6l-2.4-8
				c-0.1-0.5-0.4-0.8-0.7-0.8c-0.3-0.1-0.9,0-1.5,0.2L112.4,165.9z"/>
			<path class="st2" d="M125.3,163.4l-7.1-13.7l2.8-1.4l6.1,11.8l2.7-1.4l1,1.9L125.3,163.4z"/>
			<path class="st2" d="M138,155.8l-3.1-4.1l-8.6-6.5l2.3-1.8l5.3,4.5c-0.3-0.7-0.8-1.8-1.4-3.2c-0.6-1.4-1.1-2.5-1.4-3.2l2.3-1.7
				l3.9,10l3.1,4.1L138,155.8z"/>
		</g>
		<circle class="st2" cx="42.1" cy="35.1" r="3"/>
		<path class="st2" d="M144.2,35.1c0,1.7-1.4,3-3,3c-1.7,0-3-1.4-3-3s1.4-3,3-3S144.2,33.5,144.2,35.1z"/>
		<path class="st2" d="M38,142.9c0,1.7-1.4,3-3,3c-1.7,0-3-1.4-3-3c0-1.7,1.4-3,3-3C36.6,139.8,38,141.2,38,142.9z"/>
		<path class="st2" d="M150.2,142.9c0,1.7-1.4,3-3,3s-3-1.4-3-3c0-1.7,1.4-3,3-3S150.2,141.2,150.2,142.9z"/>
	</g>
</g>
</svg>
